<svg xmlns="http://www.w3.org/2000/svg" width="1200" height="620" viewBox="0 0 1200 620" role="img" aria-labelledby="title desc">
  <title id="title">VisionZen wearable AI assistant concept</title>
  <desc id="desc">A polished concept graphic showing Meta glasses, an iPhone bridge, a cloud bridge, and the Zenith assistant loop.</desc>
  <defs>
    <linearGradient id="bg" x1="0" y1="0" x2="1" y2="1">
      <stop offset="0" stop-color="#07111f"/>
      <stop offset="0.48" stop-color="#101827"/>
      <stop offset="1" stop-color="#1f2937"/>
    </linearGradient>
    <linearGradient id="aura" x1="0" y1="0" x2="1" y2="1">
      <stop offset="0" stop-color="#38bdf8"/>
      <stop offset="0.55" stop-color="#8b5cf6"/>
      <stop offset="1" stop-color="#f59e0b"/>
    </linearGradient>
    <filter id="softGlow" x="-40%" y="-40%" width="180%" height="180%">
      <feGaussianBlur stdDeviation="10" result="blur"/>
      <feMerge>
        <feMergeNode in="blur"/>
        <feMergeNode in="SourceGraphic"/>
      </feMerge>
    </filter>
  </defs>
  <rect width="1200" height="620" rx="32" fill="url(#bg)"/>
  <circle cx="940" cy="120" r="170" fill="#0ea5e9" opacity="0.12"/>
  <circle cx="140" cy="500" r="210" fill="#8b5cf6" opacity="0.12"/>
  <text x="72" y="106" fill="#f8fafc" font-family="Inter, Arial, sans-serif" font-size="54" font-weight="800">VisionZen</text>
  <text x="76" y="146" fill="#cbd5e1" font-family="Inter, Arial, sans-serif" font-size="22">Wearable computer vision companion for hands-free field assistance</text>
  <g transform="translate(98 246)">
    <path d="M40 44 C105 6 210 6 276 44" fill="none" stroke="#e5e7eb" stroke-width="18" stroke-linecap="round"/>
    <path d="M40 44 C105 82 210 82 276 44" fill="none" stroke="#64748b" stroke-width="18" stroke-linecap="round"/>
    <circle cx="88" cy="44" r="23" fill="#0f172a" stroke="#38bdf8" stroke-width="7"/>
    <circle cx="228" cy="44" r="23" fill="#0f172a" stroke="#38bdf8" stroke-width="7"/>
    <text x="10" y="126" fill="#e2e8f0" font-family="Inter, Arial, sans-serif" font-size="22" font-weight="700">Meta Ray-Ban glasses</text>
    <text x="10" y="158" fill="#94a3b8" font-family="Inter, Arial, sans-serif" font-size="17">camera frames + field context</text>
  </g>
  <g transform="translate(482 210)">
    <rect x="0" y="0" width="170" height="300" rx="36" fill="#111827" stroke="#475569" stroke-width="3"/>
    <rect x="18" y="32" width="134" height="220" rx="18" fill="#f8fafc"/>
    <rect x="38" y="62" width="94" height="18" rx="9" fill="#22c55e"/>
    <rect x="38" y="102" width="94" height="18" rx="9" fill="#3b82f6"/>
    <rect x="38" y="142" width="94" height="18" rx="9" fill="#a78bfa"/>
    <circle cx="85" cy="274" r="11" fill="#334155"/>
    <text x="-12" y="344" fill="#e2e8f0" font-family="Inter, Arial, sans-serif" font-size="22" font-weight="700">iPhone field mode</text>
    <text x="-22" y="376" fill="#94a3b8" font-family="Inter, Arial, sans-serif" font-size="17">permission, stream, controls</text>
  </g>
  <g transform="translate(815 220)" filter="url(#softGlow)">
    <circle cx="105" cy="105" r="96" fill="none" stroke="url(#aura)" stroke-width="7"/>
    <path d="M105 9 A96 96 0 0 1 105 201 A48 48 0 0 1 105 105 A48 48 0 0 0 105 9" fill="#f8fafc"/>
    <path d="M105 9 A96 96 0 0 0 105 201 A48 48 0 0 0 105 105 A48 48 0 0 1 105 9" fill="#111827"/>
    <circle cx="105" cy="57" r="14" fill="#111827"/>
    <circle cx="105" cy="153" r="14" fill="#f8fafc"/>
    <path d="M105 -20 L114 4 L140 4 L119 19 L127 44 L105 29 L83 44 L91 19 L70 4 L96 4 Z" fill="#f59e0b"/>
    <text x="-22" y="254" fill="#e2e8f0" font-family="Inter, Arial, sans-serif" font-size="22" font-weight="700">Z / Zen / Zenith</text>
    <text x="-60" y="286" fill="#94a3b8" font-family="Inter, Arial, sans-serif" font-size="17">voice, visual bursts, grounded help</text>
  </g>
  <path d="M390 292 C430 292 445 292 482 292" fill="none" stroke="#38bdf8" stroke-width="5" stroke-dasharray="9 12"/>
  <path d="M652 292 C725 292 758 292 815 292" fill="none" stroke="#f59e0b" stroke-width="5" stroke-dasharray="9 12"/>
  <g transform="translate(418 80)">
    <rect width="250" height="72" rx="18" fill="#0f172a" stroke="#334155"/>
    <text x="24" y="31" fill="#e2e8f0" font-family="Inter, Arial, sans-serif" font-size="17" font-weight="700">Hosted bridge</text>
    <text x="24" y="56" fill="#94a3b8" font-family="Inter, Arial, sans-serif" font-size="15">contract, billing gates, grounding</text>
  </g>
</svg>

